<svg width="26.503067" height="9.991455" viewBox="0 0 26.5031 9.99146" fill="none" xmlns="http://www.w3.org/2000/svg" xmlns:xlink="http://www.w3.org/1999/xlink">
	<desc>
			Created with Pixso.
	</desc>
	<defs/>
	<path id="Arrow 2" d="M0.75 4.24573L25.75 4.24573L25.75 5.74573L0.75 5.74573L0.75 4.24573ZM0.770004 5.74573L0 5.74573L0 4.24573L0.770004 4.24573L0.770004 5.74573ZM24.6893 4.99573L20.977 1.28345C20.6801 0.98645 20.6801 0.519714 20.977 0.222778C21.274 -0.0742188 21.7407 -0.0742188 22.0377 0.222778L26.2803 4.46539C26.5773 4.76239 26.5773 5.22906 26.2803 5.52606L22.0377 9.76868C21.7407 10.0657 21.274 10.0657 20.977 9.76868C20.68 9.47168 20.68 9.005 20.977 8.70801L24.6893 4.99573Z" fill="#99A9FF" fill-opacity="1.000000" fill-rule="evenodd"/>
</svg>
