<svg width="606.983765" height="167.054047" viewBox="0 0 606.984 167.054" fill="none" xmlns="http://www.w3.org/2000/svg" xmlns:xlink="http://www.w3.org/1999/xlink">
	<desc>
			Created with Pixso.
	</desc>
	<defs/>
	<path id="pattern" d="M606.492 85.7096C594.408 152.683 571.55 202.29 544.538 133.321M544.538 133.321C539.813 121.258 534.962 105.568 530.018 85.7096C502.523 -24.7443 480.162 -11.9868 464.687 35.5003C460.003 49.8731 455.95 67.4272 452.577 85.7096M556.26 85.7096C553.065 103.418 549.117 119.912 544.538 133.321C531.798 170.626 514.176 184.054 494.306 133.321C489.581 121.258 484.73 105.568 479.787 85.7096C474.564 64.7303 469.527 48.1959 464.687 35.5003M464.687 35.5003C444.046 -18.6451 426.991 -2.9672 414.456 35.5003C409.772 49.873 405.719 67.4272 402.345 85.7096M506.028 85.7096C502.833 103.418 498.885 119.912 494.306 133.321M494.306 133.321C481.567 170.626 463.945 184.054 444.074 133.321M444.074 133.321C439.35 121.258 434.498 105.568 429.555 85.7096C424.333 64.7303 419.295 48.1959 414.456 35.5003M414.456 35.5003C393.814 -18.6451 376.76 -2.9672 364.224 35.5003C359.54 49.873 355.487 67.4272 352.113 85.7096M455.797 85.7096C452.602 103.418 448.653 119.912 444.074 133.321C431.335 170.626 413.713 184.054 393.843 133.321C389.118 121.258 384.267 105.568 379.323 85.7096C374.101 64.7303 369.064 48.1959 364.224 35.5003M364.224 35.5003C343.582 -18.6451 326.528 -2.96719 313.992 35.5003C309.308 49.873 305.255 67.4272 301.882 85.7096M405.565 85.7096C402.37 103.418 398.422 119.912 393.843 133.321M393.843 133.321C381.103 170.626 363.481 184.054 343.611 133.321C338.886 121.258 334.035 105.568 329.092 85.7096C323.869 64.7303 318.832 48.1959 313.992 35.5003M313.992 35.5003C293.351 -18.6451 276.296 -2.96719 263.761 35.5003M263.761 35.5003C259.077 49.873 255.024 67.4272 251.65 85.7096M355.333 85.7096C352.138 103.418 348.19 119.912 343.611 133.321M343.611 133.321C330.872 170.626 313.25 184.054 293.379 133.321C288.655 121.258 283.803 105.568 278.86 85.7096C273.638 64.7303 268.6 48.1959 263.761 35.5003C243.119 -18.6451 226.065 -2.96719 213.529 35.5003M213.529 35.5003C208.845 49.873 204.792 67.4273 201.418 85.7096M305.102 85.7096C301.907 103.418 297.958 119.912 293.379 133.321M293.379 133.321C280.64 170.626 263.018 184.054 243.148 133.321M243.148 133.321C238.423 121.258 233.572 105.568 228.628 85.7096C223.406 64.7303 218.369 48.1959 213.529 35.5003C192.887 -18.6451 175.833 -2.96719 163.297 35.5003M163.297 35.5003C158.613 49.873 154.56 67.4273 151.187 85.7096M254.87 85.7096C251.675 103.418 247.727 119.912 243.148 133.321C230.408 170.626 212.786 184.054 192.916 133.321M192.916 133.321C188.191 121.258 183.34 105.568 178.397 85.7096C173.174 64.7303 168.137 48.196 163.297 35.5003C142.656 -18.6451 125.601 -2.96717 113.066 35.5003M113.066 35.5003C108.382 49.8731 104.329 67.4273 100.955 85.7096M204.638 85.7096C201.443 103.418 197.495 119.912 192.916 133.321C180.177 170.626 162.555 184.054 142.684 133.321C137.96 121.258 133.108 105.568 128.165 85.7096C122.943 64.7303 117.905 48.196 113.066 35.5003C92.424 -18.6451 75.3698 -2.96717 62.8339 35.5003M62.8339 35.5003C58.1501 49.8731 54.0971 67.4273 50.7234 85.7096M154.407 85.7096C151.212 103.418 147.263 119.912 142.684 133.321M142.684 133.321C126.916 179.496 103.667 189.09 77.9332 85.7096C72.7109 64.7303 67.6738 48.196 62.8339 35.5003C34.48 -38.8756 12.8948 18.4959 0.491699 85.7097" stroke="#000000" stroke-opacity="0.500000" stroke-width="1.000000"/>
</svg>
