<svg width="30.000000" height="30.000000" viewBox="0 0 30 30" fill="none" xmlns="http://www.w3.org/2000/svg" xmlns:xlink="http://www.w3.org/1999/xlink">
	<desc>
			Created with Pixso.
	</desc>
	<defs>
		<clipPath id="clip1_312">
			<rect id="atom 1" width="30.000000" height="30.000000" fill="white" fill-opacity="0"/>
		</clipPath>
	</defs>
	<rect id="atom 1" width="30.000000" height="30.000000" fill="#FFFFFF" fill-opacity="0"/>
	<g clip-path="url(#clip1_312)">
		<path id="Vector" d="M25.6112 11.2813C22.8824 10.1188 19.2162 9.36877 15.2987 9.16254C14.6737 9.12503 14.0649 9.11252 13.4862 9.11252C16.3837 5.57501 19.4887 3.20001 21.5324 3.12503C21.9349 3.10876 22.2762 3.19379 22.5487 3.37003C23.4312 3.94254 23.6799 5.58002 23.2299 7.85751C23.1799 8.17001 23.3799 8.47379 23.6799 8.53253C23.9924 8.59503 24.2924 8.39502 24.3549 8.08252C24.9174 5.23251 24.5049 3.27502 23.1799 2.41003C22.7049 2.10004 22.1299 1.95377 21.4924 1.97751C18.9299 2.07376 15.3174 4.85251 12.0049 9.12753C10.5624 9.17126 9.20493 9.29004 7.96494 9.48627C7.15741 5.86502 7.47742 3.26501 8.70743 2.64001C8.87991 2.54877 9.06366 2.50253 9.27869 2.48502C10.1499 2.41751 11.3537 2.97876 12.6662 4.07251C12.9087 4.27252 13.2737 4.24753 13.4737 3.99753C13.5217 3.93967 13.5579 3.87292 13.5801 3.80109C13.6023 3.72925 13.6101 3.65375 13.6032 3.57886C13.5962 3.504 13.5746 3.43121 13.5395 3.36472C13.5044 3.29822 13.4565 3.23929 13.3987 3.19128C11.8237 1.88751 10.3712 1.25003 9.18369 1.33752C8.83487 1.36578 8.49442 1.45905 8.17993 1.61252C6.69241 2.37128 6.09244 4.52127 6.46744 7.66003C6.55493 8.31003 6.66742 8.98752 6.82993 9.68503C2.72867 10.505 0.11618 12.1475 0.00366211 14.215C-0.0713196 15.6775 1.08493 17.07 3.35367 18.2425C3.42114 18.2834 3.49628 18.3101 3.57446 18.3207C3.65265 18.3313 3.73218 18.3257 3.80811 18.3043C3.88403 18.2829 3.95474 18.2461 4.01584 18.1961C4.07693 18.1462 4.12711 18.0842 4.16321 18.0141C4.19931 17.9439 4.22058 17.8671 4.22574 17.7884C4.23087 17.7096 4.21973 17.6307 4.19305 17.5564C4.16635 17.4822 4.12466 17.4142 4.07059 17.3568C4.01651 17.2993 3.95117 17.2536 3.87866 17.2225C2.06616 16.2888 1.09119 15.2375 1.14993 14.275C1.21243 12.925 3.36493 11.5375 7.09991 10.8C7.43744 12.0425 7.87494 13.34 8.41241 14.6625C7.13992 17.0225 6.21744 19.3463 5.74118 21.4125C5.04117 24.4938 5.41617 26.6875 6.81616 27.5975C7.26617 27.89 7.79117 28.035 8.37494 28.035C9.54367 28.035 10.9587 27.46 12.5587 26.32C12.6236 26.2781 12.6794 26.2234 12.7226 26.1593C12.7659 26.0952 12.7957 26.023 12.8103 25.9471C12.8249 25.8712 12.8239 25.7931 12.8075 25.7176C12.7911 25.642 12.7596 25.5706 12.7148 25.5075C12.67 25.4445 12.6129 25.3912 12.547 25.3508C12.481 25.3105 12.4076 25.2839 12.3311 25.2727C12.2546 25.2614 12.1766 25.2658 12.1019 25.2856C12.0271 25.3053 11.9572 25.34 11.8962 25.3875C9.96619 26.7663 8.34119 27.2275 7.44366 26.6413C6.49368 26.0225 6.28616 24.2125 6.86868 21.6713C7.26868 19.9388 8.00241 18.0088 9.00366 16.0213C9.25366 16.5688 9.51617 17.1163 9.79117 17.6625C11.5724 21.1575 13.7537 24.1963 15.9287 26.2188C17.6612 27.8313 19.2712 28.6725 20.5974 28.6725C21.0349 28.6725 21.4474 28.5788 21.8174 28.3938C23.2487 27.6625 23.8674 25.6313 23.5649 22.675C23.2849 19.9088 22.2399 16.5375 20.6224 13.175C20.5542 13.0418 20.4366 12.9405 20.2949 12.8926C20.1531 12.8446 19.9982 12.8539 19.8631 12.9183C19.728 12.9828 19.6234 13.0974 19.5714 13.2377C19.5195 13.3781 19.5244 13.5332 19.5849 13.67C22.9474 20.6725 23.1849 26.4075 21.2974 27.37C19.3099 28.3863 14.5174 24.4263 10.8099 17.145C10.3849 16.3263 10.0137 15.52 9.68494 14.7325C10.1099 13.9725 10.5599 13.2075 11.0537 12.445C11.5474 11.69 12.0612 10.96 12.5837 10.2638L13.0762 10.2638C13.7512 10.2638 14.4837 10.2763 15.2437 10.3238C23.4062 10.7525 28.9624 13.5238 28.8487 15.7413C28.7987 16.6975 27.6937 17.6638 25.8174 18.3913C25.6764 18.4481 25.5634 18.558 25.5026 18.6973C25.4418 18.8366 25.4382 18.9943 25.4924 19.1363C25.5191 19.2068 25.5596 19.2713 25.6114 19.326C25.6633 19.3808 25.7255 19.4247 25.7945 19.4552C25.8635 19.4857 25.9378 19.5021 26.0132 19.5036C26.0886 19.5051 26.1635 19.4915 26.2337 19.4638C28.6149 18.5388 29.9212 17.2688 29.9962 15.8013C30.0837 14.1388 28.5337 12.5388 25.6212 11.3013L25.6212 11.2888L25.6112 11.2813ZM10.0912 11.8125C9.75366 12.3313 9.44116 12.8463 9.13617 13.3675C8.78964 12.46 8.48801 11.536 8.23242 10.5988C9.12369 10.4613 10.0887 10.3613 11.1199 10.2988C10.7699 10.7863 10.4274 11.2913 10.0949 11.8113L10.0949 11.7988L10.0912 11.8125ZM14.9974 13.2813C14.5416 13.2813 14.1044 13.4623 13.7821 13.7847C13.4597 14.107 13.2787 14.5442 13.2787 15C13.2787 15.4559 13.4597 15.893 13.7821 16.2154C14.1044 16.5377 14.5416 16.7188 14.9974 16.7188C15.4533 16.7188 15.8904 16.5377 16.2128 16.2154C16.5351 15.893 16.7162 15.4559 16.7162 15C16.7162 14.5442 16.5351 14.107 16.2128 13.7847C15.8904 13.4623 15.4533 13.2813 14.9974 13.2813Z" fill="#B8B8B8" fill-opacity="1.000000" fill-rule="nonzero"/>
	</g>
</svg>
