<svg width="36.000000" height="36.000000" viewBox="0 0 36 36" fill="none" xmlns="http://www.w3.org/2000/svg" xmlns:xlink="http://www.w3.org/1999/xlink">
	<desc>
			Created with Pixso.
	</desc>
	<defs>
		<clipPath id="clip1_333">
			<rect id="Frame" width="36.000000" height="36.000000" fill="white" fill-opacity="0"/>
		</clipPath>
		<linearGradient id="paint_linear_1_334_0" x1="5.000006" y1="4.999992" x2="31.999992" y2="32.000000" gradientUnits="userSpaceOnUse">
			<stop stop-color="#99A9FF"/>
			<stop offset="1.000000" stop-color="#5CE4CF"/>
		</linearGradient>
	</defs>
	<rect id="Frame" width="36.000000" height="36.000000" fill="#FFFFFF" fill-opacity="0"/>
	<g clip-path="url(#clip1_333)">
		<path id="Vector" d="M13.5 7.5L13.5 4.5L13.5 7.5ZM22.5 7.5L22.5 4.5L22.5 7.5ZM13.5 31.5L13.5 28.5L13.5 31.5ZM22.5 31.5L22.5 28.5L22.5 31.5ZM4.5 13.5L7.5 13.5L4.5 13.5ZM4.5 22.5L7.5 22.5L4.5 22.5ZM28.5 13.5L31.5 13.5L28.5 13.5ZM28.5 22.5L31.5 22.5L28.5 22.5ZM25.5 28.5C26.2957 28.5 27.0587 28.1839 27.6213 27.6213C28.1839 27.0587 28.5 26.2957 28.5 25.5L28.5 10.5C28.5 9.70435 28.1839 8.94128 27.6213 8.37869C27.0587 7.81607 26.2957 7.5 25.5 7.5L10.5 7.5C9.70435 7.5 8.94128 7.81607 8.37869 8.37869C7.81607 8.94128 7.5 9.70435 7.5 10.5L7.5 25.5C7.5 26.2957 7.81607 27.0587 8.37869 27.6213C8.94128 28.1839 9.70435 28.5 10.5 28.5L25.5 28.5ZM22.5 13.5L22.5 22.5L13.5 22.5L13.5 13.5L22.5 13.5Z" stroke="url(#paint_linear_1_334_0)" stroke-opacity="1.000000" stroke-width="1.000000" stroke-linejoin="round"/>
	</g>
</svg>
