<svg width="27.000000" height="27.000000" viewBox="0 0 27 27" fill="none" xmlns="http://www.w3.org/2000/svg" xmlns:xlink="http://www.w3.org/1999/xlink">
	<desc>
			Created with Pixso.
	</desc>
	<defs/>
	<path id="Vector" d="M0.438502 21.2727C0.450128 21.2468 0.463335 21.2214 0.478155 21.1964L12.8552 0.366882C13.1454 -0.121399 13.8519 -0.122498 14.1436 0.364899L26.7099 21.3649C26.7709 21.4669 26.8049 21.5775 26.8139 21.6884C26.9363 21.9482 27 22.219 27 22.5C27 25.2311 20.9856 27 13.5 27C6.01436 27 0 25.2311 0 22.5C0 22.0655 0.152267 21.6552 0.438502 21.2727ZM3.25067 19.4669C5.72168 18.5335 9.38896 18 13.5 18C17.6666 18 21.3774 18.548 23.8489 19.505L13.5023 2.21439L3.25067 19.4669ZM1.60343 22.1557C1.53521 22.271 1.5 22.3861 1.5 22.5C1.5 23.9111 6.90238 25.5 13.5 25.5C20.0976 25.5 25.5 23.9111 25.5 22.5C25.5 21.0889 20.0976 19.5 13.5 19.5C7.81755 19.5 3.02175 20.6787 1.80061 21.9073L1.76768 21.9627C1.72293 22.038 1.66707 22.1026 1.60343 22.1557Z" fill="#B8B8B8" fill-opacity="1.000000" fill-rule="nonzero"/>
</svg>
