<svg width="36.000000" height="36.000000" viewBox="0 0 36 36" fill="none" xmlns="http://www.w3.org/2000/svg" xmlns:xlink="http://www.w3.org/1999/xlink">
	<desc>
			Created with Pixso.
	</desc>
	<defs>
		<clipPath id="clip1_323">
			<rect id="Frame" width="36.000000" height="36.000000" fill="white" fill-opacity="0"/>
		</clipPath>
	</defs>
	<rect id="Frame" width="36.000000" height="36.000000" fill="#FFFFFF" fill-opacity="0"/>
	<g clip-path="url(#clip1_323)">
		<path id="Vector" d="M18.0002 16.5L21.0002 15L18.0002 16.5L15.0002 15L18.0002 16.5M18.0002 16.5L18.0002 20.25L18.0002 16.5M30.0002 10.5L27.0002 12L30.0002 10.5M30.0002 10.5L30.0002 14.25L30.0002 10.5L27.0002 9L30.0002 10.5M18.0002 4.5L15.0002 6L21.0002 6L18.0002 4.5ZM6.00021 10.5L6.00021 14.25L6.00021 10.5L9.00021 9L6.00021 10.5M6.00021 10.5L9.00021 12L6.00021 10.5M18.0002 31.5L21.0002 30L18.0002 31.5L15.0002 30L18.0002 31.5M18.0002 31.5L18.0002 27.75L18.0002 31.5M6.00021 25.5L6.00021 21.75L9.00021 27L6.00021 25.5ZM27.0002 27L30.0002 25.5L30.0002 21.75" stroke="#B8B8B8" stroke-opacity="1.000000" stroke-width="1.000000" stroke-linejoin="round" stroke-linecap="round"/>
	</g>
</svg>
