<svg width="37.000000" height="37.000000" viewBox="0 0 37 37" fill="none" xmlns="http://www.w3.org/2000/svg" xmlns:xlink="http://www.w3.org/1999/xlink">
	<desc>
			Created with Pixso.
	</desc>
	<defs>
		<clipPath id="clip1_340">
			<rect id="broadcast 1" width="37.000000" height="37.000000" transform="translate(37.000000 0.000000) rotate(90.000000)" fill="white" fill-opacity="0"/>
		</clipPath>
	</defs>
	<rect id="broadcast 1" width="37.000000" height="37.000000" transform="translate(37.000000 0.000000) rotate(90.000000)" fill="#FFFFFF" fill-opacity="0"/>
	<g clip-path="url(#clip1_340)">
		<path id="Vector" d="M13.8751 18.5C13.8751 15.9456 15.9457 13.875 18.5001 13.875C21.0544 13.875 23.1251 15.9456 23.1251 18.5C23.1251 21.0543 21.0544 23.125 18.5001 23.125C15.9457 23.125 13.8751 21.0543 13.8751 18.5ZM15.4167 18.5C15.4167 20.2029 16.7972 21.5833 18.5001 21.5833C20.2029 21.5833 21.5834 20.2029 21.5834 18.5C21.5834 16.7971 20.2029 15.4166 18.5001 15.4166C16.7972 15.4166 15.4167 16.7971 15.4167 18.5ZM12.1342 13.6213C11.8485 13.937 11.3611 13.9614 11.0454 13.6757C10.7297 13.3901 10.7053 12.9026 10.991 12.5869C11.2172 12.337 11.4556 12.0985 11.7056 11.8723C15.8527 8.11987 22.2567 8.43979 26.0092 12.5869C26.2948 12.9026 26.2704 13.3901 25.9548 13.6757C25.6391 13.9614 25.1516 13.937 24.866 13.6213C21.6848 10.1055 16.2557 9.83429 12.7399 13.0155C12.5281 13.2072 12.3259 13.4094 12.1342 13.6213ZM29.1085 9.52182C29.384 9.84631 29.3444 10.3328 29.0199 10.6083C28.6954 10.8839 28.2089 10.8443 27.9333 10.5198C23.5089 5.30991 15.6986 4.67328 10.4888 9.09781C9.97699 9.53244 9.5014 10.008 9.06677 10.5198C8.7912 10.8443 8.30475 10.8839 7.98029 10.6083C7.65576 10.3328 7.61609 9.84631 7.89166 9.52182C8.38049 8.94629 8.91528 8.4115 9.49078 7.92273C15.3497 2.94705 24.1328 3.66299 29.1085 9.52182ZM24.8641 23.3807C25.1486 23.064 25.6359 23.0379 25.9526 23.3223C26.2693 23.6068 26.2955 24.0942 26.011 24.4109C22.2852 28.5591 15.9019 28.9014 11.7537 25.1755C11.4854 24.9345 11.2302 24.6793 10.9891 24.4109C10.7046 24.0942 10.7308 23.6068 11.0475 23.3223C11.3642 23.0379 11.8516 23.064 12.136 23.3807C12.3403 23.6081 12.5565 23.8244 12.7839 24.0286C16.2987 27.1855 21.7072 26.8955 24.8641 23.3807ZM27.9336 26.4799C28.2094 26.1555 28.6959 26.1161 29.0202 26.3919C29.3445 26.6676 29.3839 27.1541 29.1082 27.4784C24.1273 33.3371 15.34 34.0487 9.48126 29.0677C8.90955 28.5817 8.37805 28.0502 7.89197 27.4784C7.61621 27.1541 7.65558 26.6676 7.97992 26.3919C8.30426 26.1161 8.79077 26.1555 9.06653 26.4799C9.49878 26.9883 9.97144 27.4609 10.4799 27.8932C15.6899 32.3226 23.5042 31.6898 27.9336 26.4799Z" fill="#B8B8B8" fill-opacity="1.000000" fill-rule="nonzero"/>
	</g>
</svg>
