<svg width="26.916672" height="28.333344" viewBox="0 0 26.9167 28.3333" fill="none" xmlns="http://www.w3.org/2000/svg" xmlns:xlink="http://www.w3.org/1999/xlink">
	<desc>
			Created with Pixso.
	</desc>
	<defs/>
	<path id="Vector" d="M9.86646 5.66666C9.55585 7.8382 7.8382 9.55585 5.66666 9.86646L5.66666 18.4669C8.06955 18.8106 9.91666 20.8771 9.91666 23.375C9.91666 26.1134 7.69675 28.3333 4.95834 28.3333C2.21991 28.3333 0 26.1134 0 23.375C0 20.8771 1.84714 18.8106 4.25 18.4669L4.25 9.86646C1.84714 9.52277 0 7.45624 0 4.95834C0 2.21991 2.21991 0 4.95834 0C7.45624 0 9.52277 1.84714 9.86646 4.25L16.2917 4.25C19.8125 4.25 22.6667 7.10419 22.6667 10.625L22.6667 11.3835C25.0695 11.7273 26.9167 13.7938 26.9167 16.2917C26.9167 19.0301 24.6967 21.25 21.9583 21.25C19.2199 21.25 17 19.0301 17 16.2917C17 13.7938 18.8471 11.7273 21.25 11.3835L21.25 10.625C21.25 7.8866 19.0301 5.66666 16.2917 5.66666L9.86646 5.66666ZM1.41666 4.95834C1.41666 6.91434 3.00232 8.5 4.95834 8.5C6.91434 8.5 8.5 6.91434 8.5 4.95834C8.5 3.00232 6.91434 1.41666 4.95834 1.41666C3.00232 1.41666 1.41666 3.00232 1.41666 4.95834ZM1.41666 23.375C1.41666 25.331 3.00232 26.9167 4.95834 26.9167C6.91434 26.9167 8.5 25.331 8.5 23.375C8.5 21.419 6.91434 19.8333 4.95834 19.8333C3.00232 19.8333 1.41666 21.419 1.41666 23.375ZM21.9583 12.75C20.0023 12.75 18.4167 14.3357 18.4167 16.2917C18.4167 18.2477 20.0023 19.8333 21.9583 19.8333C23.9143 19.8333 25.5 18.2477 25.5 16.2917C25.5 14.3357 23.9143 12.75 21.9583 12.75Z" fill="#B8B8B8" fill-opacity="1.000000" fill-rule="nonzero"/>
</svg>
