<svg width="160.087402" height="149.095947" viewBox="0 0 160.087 149.096" fill="none" xmlns="http://www.w3.org/2000/svg" xmlns:xlink="http://www.w3.org/1999/xlink">
	<desc>
			Created with Pixso.
	</desc>
	<defs>
		<linearGradient id="paint_linear_1_464_0" x1="42.376461" y1="83.637581" x2="134.963821" y2="45.451088" gradientUnits="userSpaceOnUse">
			<stop stop-color="#99A9FF"/>
			<stop offset="1.000000" stop-color="#5CE5CF"/>
		</linearGradient>
	</defs>
	<path id="Vector" d="M147.257 0.12915C160.848 17.7078 167.851 34.1438 145.165 25.7322C141.197 24.261 136.321 22.0298 130.413 18.9116C97.5538 1.56836 95.7245 9.84351 103.839 24.0039C106.296 28.2898 109.663 33.115 113.356 37.9319M136.193 12.4666C139.787 17.1143 142.92 21.6824 145.165 25.7322M145.165 25.7322C151.412 36.9995 150.789 44.2571 134.101 38.0696M134.101 38.0696C130.133 36.5984 125.257 34.3672 119.349 31.249C113.108 27.9548 107.986 25.585 103.839 24.0039M103.839 24.0039C86.1536 17.2615 86.2017 24.8704 92.7753 36.3413C95.2314 40.6272 98.5985 45.4521 102.292 50.2693M125.129 24.8037C128.723 29.4517 131.856 34.0195 134.101 38.0696C140.348 49.3367 139.725 56.5942 123.037 50.4067M123.037 50.4067C119.069 48.9355 114.193 46.7043 108.285 43.5862C102.044 40.2922 96.9222 37.9221 92.7753 36.3413M92.7753 36.3413C75.0895 29.5989 75.1377 37.2078 81.7112 48.6787C84.1674 52.9644 87.5344 57.7896 91.2279 62.6064M114.065 37.1411C117.659 41.7888 120.792 46.3569 123.037 50.4067C129.284 61.6741 128.661 68.9316 111.973 62.7441C108.005 61.2729 103.129 59.0417 97.2211 55.9236C90.9799 52.6294 85.8581 50.2595 81.7112 48.6787M81.7112 48.6787C64.0255 41.9363 64.0736 49.5452 70.6472 61.0159C73.1033 65.3018 76.4704 70.1267 80.1638 74.9438M103.001 49.4783C106.595 54.1262 109.727 58.6941 111.973 62.7441M111.973 62.7441C118.22 74.0115 117.597 81.2688 100.909 75.0813C96.9409 73.6104 92.0649 71.3789 86.1571 68.2607C79.9158 64.9668 74.794 62.5969 70.6472 61.0159M70.6472 61.0159C52.9614 54.2734 53.0095 61.8823 59.5831 73.3533M59.5831 73.3533C62.0392 77.6392 65.4063 82.4641 69.0997 87.281M91.9371 61.8157C95.5305 66.4636 98.6634 71.0315 100.909 75.0813M100.909 75.0813C107.156 86.3486 106.533 93.6062 89.8447 87.4187M89.8447 87.4187C85.8768 85.9475 81.0008 83.7163 75.093 80.5981C68.8517 77.304 63.7299 74.9341 59.5831 73.3533C41.8973 66.6108 41.9454 74.2197 48.519 85.6904C50.9752 89.9763 54.3422 94.8013 58.0356 99.6184M80.873 74.1531C84.4664 78.8008 87.5993 83.3689 89.8447 87.4187C96.0914 98.686 95.4686 105.944 78.7806 99.7561M78.7806 99.7561C74.8127 98.2849 69.9368 96.0537 64.0289 92.9355C57.7877 89.6414 52.6659 87.2715 48.519 85.6904M48.519 85.6904C30.8333 78.948 30.8813 86.5569 37.455 98.0278C39.9111 102.314 43.2782 107.139 46.9716 111.956M69.809 86.4902C73.4023 91.1382 76.5352 95.7061 78.7806 99.7561C85.0273 111.023 84.4045 118.281 67.7166 112.093M67.7166 112.093C63.7487 110.622 58.8727 108.391 52.9648 105.273C46.7236 101.979 41.6018 99.6086 37.455 98.0278M37.455 98.0278C19.7692 91.2854 19.8173 98.8943 26.3909 110.365C28.847 114.651 32.2141 119.476 35.9075 124.293M58.7449 98.8276C62.3383 103.475 65.4712 108.043 67.7166 112.093C73.9633 123.361 73.3405 130.618 56.6525 124.431C52.6846 122.959 47.8086 120.728 41.9008 117.61C35.6595 114.316 30.5377 111.946 26.3909 110.365M26.3909 110.365C8.70508 103.623 8.75323 111.232 15.3268 122.702M15.3268 122.702C17.783 126.988 21.15 131.813 24.8434 136.63M47.6808 111.165C51.2742 115.813 54.4071 120.381 56.6525 124.431M56.6525 124.431C64.3845 138.377 61.5919 146.18 30.8367 129.947C24.5955 126.653 19.4736 124.283 15.3268 122.702C-8.96692 113.441 0.200806 131.258 13.7794 148.968" stroke="url(#paint_linear_1_464_0)" stroke-opacity="1.000000" stroke-width="0.421770"/>
</svg>
