<svg width="26.503067" height="9.991699" viewBox="0 0 26.5031 9.9917" fill="none" xmlns="http://www.w3.org/2000/svg" xmlns:xlink="http://www.w3.org/1999/xlink">
	<desc>
			Created with Pixso.
	</desc>
	<defs/>
	<path id="Arrow 2" d="M0.75 4.24585L25.75 4.24585L25.75 5.74585L0.75 5.74585L0.75 4.24585ZM0.770004 5.74585L0 5.74585L0 4.24585L0.770004 4.24585L0.770004 5.74585ZM24.6893 4.99585L20.977 1.28345C20.6801 0.986572 20.6801 0.519775 20.977 0.2229C21.274 -0.0742188 21.7407 -0.0742188 22.0377 0.2229L26.2803 4.46558C26.5773 4.76245 26.5773 5.22925 26.2803 5.52612L22.0377 9.7688C21.7407 10.0659 21.274 10.0659 20.977 9.7688C20.68 9.47192 20.68 9.00513 20.977 8.70825L24.6893 4.99585Z" fill="#5CE4CF" fill-opacity="1.000000" fill-rule="evenodd"/>
</svg>
