<svg width="283.362427" height="553.893799" viewBox="0 0 283.362 553.894" fill="none" xmlns="http://www.w3.org/2000/svg" xmlns:xlink="http://www.w3.org/1999/xlink">
	<desc>
			Created with Pixso.
	</desc>
	<defs/>
	<path id="Vector" d="M65.6422 553.441C7.58911 526.067 -32.0106 493.101 37.4203 485.286C49.5637 483.919 65.0424 483.321 84.3408 483.657C191.679 485.528 185.525 462.009 146.052 436.297C134.105 428.514 119.105 420.531 103.276 412.99M77.9243 507.604C62.5748 500.366 48.5154 492.737 37.4203 485.286M37.4203 485.286C6.55286 464.555 -1.37067 445.197 49.7025 439.448C61.8459 438.081 77.3245 437.484 96.6229 437.82C117.01 438.175 133.304 437.614 146.052 436.297M146.052 436.297C200.421 430.677 190.31 411.288 158.334 390.459C146.387 382.677 131.387 374.694 115.558 367.153M90.2065 461.766C74.8571 454.528 60.7976 446.9 49.7025 439.448M49.7025 439.448C18.835 418.718 10.9115 399.36 61.9847 393.611C74.1281 392.244 89.6067 391.646 108.905 391.982C129.293 392.337 145.586 391.777 158.334 390.459M158.334 390.459C212.704 384.839 202.592 365.45 170.616 344.621M170.616 344.621C158.669 336.839 143.669 328.856 127.84 321.315M102.489 415.928C87.1392 408.691 73.0798 401.062 61.9847 393.611M61.9847 393.611C31.1172 372.88 23.1937 353.522 74.2668 347.773M74.2668 347.773C86.4102 346.406 101.889 345.808 121.187 346.145C141.575 346.5 157.868 345.939 170.616 344.621C224.986 339.001 214.874 319.612 182.898 298.784C170.951 291.001 155.951 283.018 140.122 275.477M114.771 370.091C99.4213 362.853 85.3619 355.224 74.2668 347.773C43.3994 327.042 35.4758 307.684 86.549 301.935C98.6924 300.568 114.171 299.971 133.469 300.307C153.857 300.662 170.15 300.102 182.898 298.784M182.898 298.784C237.268 293.164 227.156 273.775 195.18 252.946M195.18 252.946C183.233 245.164 168.234 237.181 152.405 229.64M127.053 324.253C111.703 317.015 97.644 309.387 86.549 301.935M86.549 301.935C55.6815 281.205 47.758 261.847 98.8312 256.098M98.8312 256.098C110.975 254.731 126.453 254.133 145.752 254.469C166.139 254.824 182.432 254.264 195.18 252.946C249.55 247.326 239.439 227.937 207.463 207.108M207.463 207.108C195.515 199.326 180.516 191.343 164.687 183.802M139.335 278.416C123.986 271.178 109.926 263.549 98.8312 256.098C67.9637 235.367 60.0402 216.009 111.113 210.26M111.113 210.26C123.257 208.893 138.735 208.295 158.034 208.632C178.421 208.987 194.714 208.426 207.463 207.108C261.832 201.488 251.721 182.099 219.745 161.271M219.745 161.271C207.798 153.489 192.798 145.505 176.969 137.964M151.617 232.578C136.268 225.34 122.208 217.711 111.113 210.26C80.2458 189.53 72.3223 170.171 123.396 164.422M123.396 164.422C135.539 163.055 151.017 162.458 170.316 162.794C190.703 163.149 206.997 162.589 219.745 161.271C274.114 155.651 264.003 136.262 232.027 115.433C220.08 107.651 205.08 99.6677 189.251 92.1267M163.899 186.74C148.55 179.502 134.491 171.874 123.396 164.422C92.528 143.692 84.6045 124.334 135.678 118.585C147.821 117.218 163.3 116.62 182.598 116.957C202.986 117.312 219.279 116.751 232.027 115.433M232.027 115.433C286.397 109.813 276.285 90.4241 244.309 69.5955M244.309 69.5955C232.362 61.8132 217.362 53.8301 201.533 46.2891M176.182 140.903C160.832 133.665 146.773 126.036 135.678 118.585M135.678 118.585C97.4709 92.9253 94.4158 69.3687 194.88 71.1187C215.268 71.4741 231.561 70.9131 244.309 69.5955C318.993 61.8757 272.01 28.1753 213.815 0.45166" stroke="#000000" stroke-opacity="1.000000" stroke-width="1.000000"/>
</svg>
