<svg width="265.121582" height="518.165649" viewBox="0 0 265.122 518.166" fill="none" xmlns="http://www.w3.org/2000/svg" xmlns:xlink="http://www.w3.org/1999/xlink">
	<desc>
			Created with Pixso.
	</desc>
	<defs/>
	<path id="Vector" d="M61.4346 517.714C7.13226 492.108 -29.909 461.272 35.0361 453.961M35.0361 453.961C46.395 452.683 60.8735 452.124 78.925 452.438C179.328 454.187 173.572 432.188 136.649 408.137C125.474 400.858 111.443 393.391 96.637 386.337M72.9232 474.837C58.5654 468.067 45.4144 460.931 35.0361 453.961C6.16296 434.57 -1.2486 416.463 46.5248 411.085C57.8836 409.807 72.3621 409.248 90.4137 409.562C109.484 409.894 124.725 409.37 136.649 408.137M136.649 408.137C187.506 402.88 178.048 384.744 148.138 365.261C136.962 357.982 122.932 350.514 108.126 343.461M84.4119 431.961C70.0541 425.191 56.903 418.055 46.5248 411.085M46.5248 411.085C17.6516 391.694 10.24 373.587 58.0134 368.209C69.3722 366.93 83.8508 366.371 101.902 366.686C120.973 367.018 136.213 366.494 148.138 365.261M148.138 365.261C198.995 360.004 189.536 341.868 159.626 322.385C148.451 315.106 134.421 307.638 119.614 300.584M95.9005 389.085C81.5427 382.315 68.3917 375.179 58.0134 368.209M58.0134 368.209C29.1402 348.818 21.7286 330.711 69.502 325.333C80.8608 324.054 95.3394 323.495 113.391 323.81C132.461 324.142 147.702 323.618 159.626 322.385M159.626 322.385C210.483 317.128 201.025 298.992 171.115 279.509M171.115 279.509C159.94 272.229 145.909 264.762 131.103 257.708M107.389 346.209C93.0313 339.439 79.8802 332.303 69.502 325.333M69.502 325.333C40.6288 305.942 33.2173 287.834 80.9907 282.457M80.9907 282.457C92.3495 281.178 106.828 280.619 124.88 280.934C143.95 281.266 159.19 280.741 171.115 279.509C221.972 274.252 212.514 256.115 182.604 236.633M182.604 236.633C171.428 229.353 157.398 221.886 142.591 214.832M118.878 303.333C104.52 296.563 91.3689 289.427 80.9907 282.457C52.1174 263.066 44.7059 244.958 92.4792 239.581M92.4792 239.581C103.838 238.302 118.317 237.743 136.368 238.057C155.439 238.39 170.679 237.865 182.604 236.633C233.46 231.376 224.002 213.239 194.092 193.756C182.917 186.477 168.886 179.01 154.08 171.956M130.366 260.457C116.009 253.687 102.858 246.551 92.4792 239.581C63.6061 220.19 56.1945 202.082 103.968 196.705M103.968 196.705C115.327 195.426 129.805 194.867 147.857 195.181C166.927 195.514 182.168 194.989 194.092 193.756M194.092 193.756C244.949 188.5 235.491 170.363 205.581 150.88C194.406 143.601 180.375 136.134 165.569 129.08M141.855 217.581C127.497 210.81 114.346 203.675 103.968 196.705C75.0947 177.313 67.6831 159.206 115.457 153.828C126.815 152.55 141.294 151.991 159.345 152.305C178.416 152.638 193.656 152.113 205.581 150.88M205.581 150.88C256.438 145.624 246.979 127.487 217.069 108.004C205.894 100.725 191.864 93.2574 177.057 86.2037M153.344 174.704C138.986 167.934 125.835 160.798 115.457 153.828M115.457 153.828C86.5834 134.437 79.1718 116.33 126.945 110.952C138.304 109.674 152.783 109.115 170.834 109.429C189.904 109.761 205.145 109.237 217.069 108.004M217.069 108.004C267.926 102.747 258.468 84.611 228.558 65.1282M228.558 65.1282C217.383 57.8488 203.352 50.3813 188.546 43.3275M164.832 131.828C150.474 125.058 137.323 117.922 126.945 110.952M126.945 110.952C91.207 86.9506 88.3492 64.9159 182.323 66.5531C201.393 66.8853 216.634 66.3607 228.558 65.1282C298.417 57.9071 254.469 26.3842 200.035 0.451416" stroke="#000000" stroke-opacity="1.000000" stroke-width="1.000000"/>
</svg>
