<svg width="1894.081787" height="770.345947" viewBox="0 0 1894.08 770.346" fill="none" xmlns="http://www.w3.org/2000/svg" xmlns:xlink="http://www.w3.org/1999/xlink">
	<desc>
			Created with Pixso.
	</desc>
	<defs/>
	<g opacity="0.800000">
		<path id="big-pattern" d="M2.65381 632.303C-9.086 437.716 25.5569 281.963 160.612 449.379M160.612 449.379C184.233 478.66 210.925 517.826 240.979 568.4C408.135 849.689 468.411 795.861 481.612 652.117C485.608 608.611 485.291 556.868 482.32 503.687M159.198 590.328C156.094 538.878 156.232 490.143 160.612 449.379C172.797 335.97 217.81 284.253 317.156 407.404C340.777 436.685 367.469 475.851 397.522 526.424C429.272 579.852 457.165 621.189 481.612 652.117M481.612 652.117C585.878 784.022 627.462 726.583 638.156 610.142C642.152 566.636 641.835 514.893 638.864 461.711M315.741 548.353C312.637 496.903 312.776 448.168 317.156 407.404M317.156 407.404C329.341 293.994 374.354 242.278 473.7 365.429M473.7 365.429C497.32 394.709 524.013 433.876 554.066 484.449C585.815 537.876 613.709 579.214 638.156 610.142M638.156 610.142C742.422 742.047 784.006 684.608 794.7 568.167C798.696 524.661 798.379 472.917 795.408 419.736M472.285 506.377C469.181 454.928 469.32 406.193 473.7 365.429C485.885 252.019 530.897 200.303 630.243 323.453C653.864 352.734 680.557 391.9 710.61 442.474C742.359 495.901 770.253 537.239 794.7 568.167M794.7 568.167C898.966 700.071 940.55 642.633 951.244 526.191C955.239 482.685 954.923 430.942 951.951 377.761M628.829 464.402C625.725 412.952 625.864 364.218 630.243 323.453M630.243 323.453C642.428 210.044 687.441 158.328 786.787 281.478C810.408 310.759 837.101 349.925 867.154 400.498C898.903 453.926 926.796 495.263 951.244 526.191M951.244 526.191C1055.51 658.096 1097.09 600.657 1107.79 484.216M1107.79 484.216C1111.78 440.71 1111.47 388.967 1108.5 335.786M785.373 422.427C782.269 370.977 782.407 322.242 786.787 281.478M786.787 281.478C798.972 168.068 843.985 116.352 943.331 239.503C966.952 268.783 993.644 307.95 1023.7 358.523C1055.45 411.95 1083.34 453.288 1107.79 484.216C1212.05 616.121 1253.64 558.682 1264.33 442.241M1264.33 442.241C1268.33 398.735 1268.01 346.991 1265.04 293.81M941.917 380.452C938.813 329.002 938.951 280.267 943.331 239.503M943.331 239.503C955.516 126.093 1000.53 74.377 1099.87 197.527C1123.5 226.808 1150.19 265.975 1180.24 316.548C1211.99 369.975 1239.88 411.313 1264.33 442.241C1368.6 574.145 1410.18 516.707 1420.88 400.265M1420.88 400.265C1424.87 356.759 1424.55 305.016 1421.58 251.835M1098.46 338.476C1095.36 287.026 1095.49 238.292 1099.87 197.527M1099.87 197.527C1112.06 84.1177 1157.07 32.4014 1256.42 155.552C1280.04 184.833 1306.73 223.999 1336.79 274.572C1368.53 328 1396.43 369.337 1420.88 400.265C1525.14 532.17 1566.73 474.731 1577.42 358.29M1577.42 358.29C1581.41 314.784 1581.1 263.041 1578.13 209.86M1255 296.501C1251.9 245.051 1252.04 196.316 1256.42 155.552M1256.42 155.552C1268.6 42.1423 1313.62 -9.57373 1412.96 113.577C1436.58 142.857 1463.28 182.024 1493.33 232.597C1525.08 286.024 1552.97 327.362 1577.42 358.29C1681.68 490.195 1723.27 432.756 1733.96 316.315M1733.96 316.315C1737.96 272.809 1737.64 221.065 1734.67 167.884M1411.55 254.526C1408.44 203.076 1408.58 154.341 1412.96 113.577M1412.96 113.577C1428.04 -26.7976 1493.42 -72.6541 1649.87 190.622C1681.62 244.049 1709.52 285.387 1733.96 316.315C1877.19 497.503 1902.14 321.426 1891.21 125.909" stroke="#000000" stroke-opacity="1.000000" stroke-width="1.000000"/>
	</g>
</svg>
