<svg width="20.000000" height="20.000000" viewBox="0 0 20 20" fill="none" xmlns="http://www.w3.org/2000/svg" xmlns:xlink="http://www.w3.org/1999/xlink">
	<desc>
			Created with Pixso.
	</desc>
	<defs>
		<radialGradient id="paint_angular_1655_352_0" cx="0.000000" cy="0.000000" r="1.000000" gradientUnits="userSpaceOnUse" gradientTransform="translate(10 10) rotate(90) scale(10 10)">
			<stop offset="0.117708" stop-color="#8093FF"/>
			<stop offset="0.555208" stop-color="#66FFE6"/>
		</radialGradient>
	</defs>
	<path id="Vector" d="M0 20L8 20L8 12L0 12L0 20ZM12 20L20 20L20 12L12 12L12 20ZM0 8L8 8L8 0L0 0L0 8ZM16 8C18.2092 8 20 6.20923 20 4C20 1.79077 18.2092 0 16 0C13.7908 0 12 1.79077 12 4C12 5.06079 12.4214 6.07812 13.1716 6.82837C13.9218 7.57861 14.9391 8 16 8Z" fill="#D4D4D4" fill-opacity="0" fill-rule="nonzero"/>
	<path id="Vector" d="M16 8C18.2092 8 20 6.20923 20 4C20 1.79077 18.2092 0 16 0C13.7908 0 12 1.79077 12 4C12 5.06079 12.4214 6.07812 13.1716 6.82837C13.9218 7.57861 14.9391 8 16 8ZM8 7L8 8L0 8L0 0L8 0L8 1L8 7ZM7 7L1 7L1 1L7 1L7 7ZM18.9231 4.68091Q19 4.34937 19 4Q19 3.65088 18.9231 3.31934Q18.8655 3.07104 18.7646 2.83252Q18.6602 2.58569 18.5161 2.3645Q18.3463 2.10352 18.1213 1.87866Q17.8964 1.65381 17.6356 1.48389Q17.4144 1.33984 17.1674 1.23535Q16.929 1.13452 16.6806 1.0769Q16.3492 1 16 1Q15.6507 1 15.3192 1.0769Q15.0709 1.13452 14.8325 1.23535Q14.5855 1.33984 14.3643 1.48389Q14.1036 1.65381 13.8787 1.87866Q13.6537 2.10352 13.4839 2.36426Q13.3398 2.58545 13.2354 2.83252Q13.1345 3.0708 13.0769 3.31934Q13 3.65063 13 4Q13 4.29858 13.0572 4.58594Q13.1143 4.87256 13.2283 5.14795Q13.3423 5.4231 13.5045 5.66602Q13.6673 5.90991 13.8787 6.12134Q14.0901 6.33276 14.3339 6.49536Q14.5768 6.65771 14.852 6.77173Q15.1274 6.88574 15.4142 6.94287Q15.7014 7 16 7Q16.3493 7 16.6807 6.9231Q16.9291 6.86548 17.1674 6.76465Q17.4144 6.66016 17.6357 6.51611Q17.8964 6.34619 18.1213 6.12134Q18.3463 5.89648 18.5161 5.63574Q18.6602 5.41455 18.7646 5.16748Q18.8655 4.9292 18.9231 4.68091ZM20 19L20 12L12 12L12 20L20 20L20 19ZM19 19L13 19L13 13L19 13L19 19ZM8 19L8 20L0 20L0 12L8 12L8 13L8 19ZM7 19L1 19L1 13L7 13L7 19Z" fill="url(#paint_angular_1655_352_0)" fill-opacity="1.000000" fill-rule="evenodd"/>
</svg>
